<?xml version="1.0" encoding="UTF-8" standalone="no"?>
<!-- Created with Inkscape (http://www.inkscape.org/) -->

<svg
   xmlns:dc="http://purl.org/dc/elements/1.1/"
   xmlns:cc="http://creativecommons.org/ns#"
   xmlns:rdf="http://www.w3.org/1999/02/22-rdf-syntax-ns#"
   xmlns:svg="http://www.w3.org/2000/svg"
   xmlns="http://www.w3.org/2000/svg"
   xmlns:sodipodi="http://sodipodi.sourceforge.net/DTD/sodipodi-0.dtd"
   xmlns:inkscape="http://www.inkscape.org/namespaces/inkscape"
   width="213"
   height="213"
   viewBox="0 0 56.356249 56.356252"
   version="1.1"
   id="svg3171"
   inkscape:version="0.92.5 (2060ec1f9f, 2020-04-08)"
   sodipodi:docname="biodiversita.svg">
  <defs
     id="defs3165" />
  <sodipodi:namedview
     id="base"
     pagecolor="#ffffff"
     bordercolor="#666666"
     borderopacity="1.0"
     inkscape:pageopacity="0.0"
     inkscape:pageshadow="2"
     inkscape:zoom="1.4"
     inkscape:cx="-0.0042266886"
     inkscape:cy="223.68975"
     inkscape:document-units="mm"
     inkscape:current-layer="layer1"
     showgrid="false"
     units="px"
     inkscape:window-width="1920"
     inkscape:window-height="1025"
     inkscape:window-x="0"
     inkscape:window-y="1080"
     inkscape:window-maximized="1" />
  <metadata
     id="metadata3168">
    <rdf:RDF>
      <cc:Work
         rdf:about="">
        <dc:format>image/svg+xml</dc:format>
        <dc:type
           rdf:resource="http://purl.org/dc/dcmitype/StillImage" />
        <dc:title></dc:title>
      </cc:Work>
    </rdf:RDF>
  </metadata>
  <g
     inkscape:label="Livello 1"
     inkscape:groupmode="layer"
     id="layer1"
     transform="translate(0,-240.64373)">
    <g
       id="g958"
       transform="matrix(0.35277777,0,0,-0.35277777,50.675141,270.56816)">
      <path
         d="m 0,0 c -9.868,15.029 -32.671,29.179 -49.174,28.316 1.988,2.868 3.157,6.344 3.157,10.089 0,4.922 -2.015,9.381 -5.261,12.6 2.5,5.85 7.176,10.648 12.988,13.274 1.19,0.537 1.718,1.938 1.181,3.127 -0.537,1.189 -1.937,1.718 -3.127,1.18 -6.533,-2.951 -11.854,-8.219 -14.912,-14.67 -2.555,1.427 -5.495,2.243 -8.623,2.243 -3.128,0 -6.068,-0.816 -8.623,-2.242 -3.058,6.452 -8.375,11.716 -14.912,14.67 -1.19,0.538 -2.59,0.008 -3.127,-1.181 -0.537,-1.189 -0.009,-2.589 1.18,-3.127 5.817,-2.628 10.488,-7.422 12.988,-13.274 -3.246,-3.219 -5.26,-7.678 -5.26,-12.6 0,-3.745 1.169,-7.221 3.157,-10.088 C -94.874,29.18 -117.674,15.029 -127.542,0 c -6.532,-9.948 -6.768,-19.086 -0.665,-25.733 3.308,-3.602 7.504,-5.411 12.32,-5.411 4.07,0 8.583,1.292 13.377,3.885 4.181,2.261 8.377,5.43 12.299,9.171 -1.177,-7.694 0.702,-16.418 5.16,-23.948 4.802,-8.11 12.105,-14.059 20.563,-16.75 0.233,-0.074 0.475,-0.111 0.717,-0.111 0.242,0 0.483,0.037 0.716,0.111 8.458,2.691 15.761,8.64 20.563,16.75 4.459,7.53 6.337,16.254 5.16,23.948 3.923,-3.742 8.119,-6.91 12.3,-9.171 4.794,-2.593 9.306,-3.885 13.376,-3.885 4.816,0 9.013,1.809 12.32,5.411 C 6.768,-19.086 6.532,-9.948 0,0 m -63.771,-2.195 c 12.195,0 20.127,-6.034 21.76,-16.555 0.022,-0.145 0.042,-0.291 0.062,-0.437 -6.748,2.296 -14.214,3.503 -21.822,3.503 -7.609,0 -15.075,-1.207 -21.823,-3.503 0.02,0.146 0.04,0.292 0.062,0.436 1.634,10.522 9.565,16.556 21.761,16.556 m 0,4.727 c -4.582,0 -8.699,-0.763 -12.254,-2.209 3.998,7.342 6.321,14.936 5.868,21.521 1.983,-0.767 4.135,-1.192 6.386,-1.192 2.25,0 4.402,0.425 6.385,1.192 -0.453,-6.585 1.87,-14.179 5.868,-21.521 -3.555,1.446 -7.672,2.209 -12.253,2.209 m 0,48.9 c 7.182,0 13.026,-5.844 13.026,-13.027 0,-7.183 -5.843,-13.027 -13.026,-13.027 -7.184,0 -13.028,5.844 -13.028,13.027 0.001,7.183 5.844,13.027 13.028,13.027 m -40.989,-74.534 c -5.927,-3.207 -14.202,-5.711 -19.966,0.566 -5.764,6.276 -2.564,14.309 1.135,19.942 5.021,7.647 13.893,15.282 23.732,20.425 7.306,3.819 14.262,5.811 19.97,5.811 1.739,0 3.362,-0.184 4.843,-0.559 1.059,-6.458 -1.57,-15.203 -7.343,-24.275 -5.961,-9.366 -14.324,-17.557 -22.371,-21.91 m 40.989,-30.941 c -7.732,2.675 -13.662,8.264 -17.416,14.791 5.48,1.542 11.455,2.354 17.416,2.354 5.955,0 11.938,-0.813 17.415,-2.354 -3.754,-6.528 -9.684,-12.117 -17.415,-14.791 m 19.526,19.101 c -6.115,1.813 -12.843,2.77 -19.526,2.77 -6.689,0 -13.407,-0.955 -19.527,-2.769 -1.439,3.51 -2.283,7.156 -2.481,10.67 6.69,2.528 14.26,3.86 22.008,3.86 7.748,0 15.318,-1.332 22.008,-3.86 -0.199,-3.515 -1.043,-7.16 -2.482,-10.671 m 41.428,12.406 c -5.763,-6.276 -14.039,-3.772 -19.966,-0.566 -8.047,4.353 -16.41,12.544 -22.37,21.91 -5.774,9.072 -8.403,17.817 -7.343,24.275 6.344,1.605 15.282,-0.271 24.812,-5.252 9.839,-5.142 18.711,-12.778 23.733,-20.425 3.698,-5.633 6.898,-13.666 1.134,-19.942"
         style="fill:#000000;fill-opacity:1;fill-rule:nonzero;stroke:none"
         id="path960"
         inkscape:connector-curvature="0" />
    </g>
  </g>
</svg>
