<?xml version="1.0" encoding="UTF-8" standalone="no"?>
<!-- Created with Inkscape (http://www.inkscape.org/) -->

<svg
   xmlns:dc="http://purl.org/dc/elements/1.1/"
   xmlns:cc="http://creativecommons.org/ns#"
   xmlns:rdf="http://www.w3.org/1999/02/22-rdf-syntax-ns#"
   xmlns:svg="http://www.w3.org/2000/svg"
   xmlns="http://www.w3.org/2000/svg"
   xmlns:sodipodi="http://sodipodi.sourceforge.net/DTD/sodipodi-0.dtd"
   xmlns:inkscape="http://www.inkscape.org/namespaces/inkscape"
   width="60mm"
   height="60mm"
   viewBox="0 0 60 60"
   version="1.1"
   id="svg5046"
   inkscape:version="0.92.5 (2060ec1f9f, 2020-04-08)"
   sodipodi:docname="cambiamento-climatico.svg">
  <defs
     id="defs5040" />
  <sodipodi:namedview
     id="base"
     pagecolor="#ffffff"
     bordercolor="#666666"
     borderopacity="1.0"
     inkscape:pageopacity="0.0"
     inkscape:pageshadow="2"
     inkscape:zoom="0.35"
     inkscape:cx="-15.476175"
     inkscape:cy="-370.50087"
     inkscape:document-units="mm"
     inkscape:current-layer="layer1"
     showgrid="false"
     fit-margin-top="0"
     fit-margin-left="0"
     fit-margin-right="0"
     fit-margin-bottom="0"
     inkscape:window-width="1920"
     inkscape:window-height="1055"
     inkscape:window-x="0"
     inkscape:window-y="0"
     inkscape:window-maximized="1" />
  <metadata
     id="metadata5043">
    <rdf:RDF>
      <cc:Work
         rdf:about="">
        <dc:format>image/svg+xml</dc:format>
        <dc:type
           rdf:resource="http://purl.org/dc/dcmitype/StillImage" />
        <dc:title></dc:title>
      </cc:Work>
    </rdf:RDF>
  </metadata>
  <g
     inkscape:label="Livello 1"
     inkscape:groupmode="layer"
     id="layer1"
     transform="translate(-49.387422,-29.498728)">
    <g
       id="g5793"
       transform="translate(-186.95833,-188.75)">
      <g
         transform="matrix(0.35277777,0,0,-0.35277777,262.29282,228.24159)"
         id="g982">
        <path
           inkscape:connector-curvature="0"
           id="path984"
           style="fill:#000000;fill-opacity:1;fill-rule:nonzero;stroke:none"
           d="m 0,0 c -4.814,0 -8.731,-3.917 -8.731,-8.731 v -68.59 L -9.236,-77.6 c -6.086,-3.362 -9.867,-9.769 -9.867,-16.722 0,-10.534 8.57,-19.103 19.103,-19.103 10.533,0 19.103,8.569 19.103,19.103 0,6.953 -3.781,13.36 -9.867,16.722 l -0.505,0.279 v 68.59 C 8.731,-3.917 4.814,0 0,0 m -5.099,-8.731 c 0,2.812 2.288,5.099 5.099,5.099 2.812,0 5.099,-2.287 5.099,-5.099 V -41.675 H -5.099 Z m 20.57,-85.591 c 0,-8.531 -6.94,-15.471 -15.471,-15.471 -8.531,0 -15.471,6.94 -15.471,15.471 0,6.149 3.644,11.716 9.284,14.18 0.661,0.289 1.088,0.943 1.088,1.664 v 33.171 H 5.099 v -33.171 c 0,-0.721 0.427,-1.374 1.089,-1.664 5.639,-2.464 9.283,-8.031 9.283,-14.18" />
      </g>
      <g
         transform="matrix(0.35277777,0,0,-0.35277777,262.29282,228.24159)"
         id="g986">
        <path
           inkscape:connector-curvature="0"
           id="path988"
           style="fill:#000000;fill-opacity:1;fill-rule:nonzero;stroke:none"
           d="M 0,0 V 0.467 C -5.073,0.466 -9.197,-3.658 -9.198,-8.731 v -68.314 l -0.263,-0.146 c -6.236,-3.444 -10.109,-10.008 -10.109,-17.131 0.001,-10.793 8.778,-19.569 19.57,-19.57 10.792,10e-4 19.569,8.777 19.57,19.57 0,7.123 -3.873,13.687 -10.108,17.131 l -0.264,0.146 V -8.731 C 9.197,-3.658 5.073,0.466 0,0.467 V 0 -0.467 c 2.279,0 4.343,-0.926 5.841,-2.423 1.497,-1.498 2.423,-3.562 2.423,-5.841 v -68.866 l 0.746,-0.412 c 5.938,-3.279 9.626,-9.531 9.626,-16.313 0,-5.139 -2.089,-9.795 -5.464,-13.172 -3.377,-3.375 -8.033,-5.464 -13.172,-5.464 -5.139,0 -9.795,2.089 -13.171,5.464 -3.376,3.377 -5.465,8.033 -5.465,13.172 0,6.782 3.689,13.034 9.626,16.313 l 0.505,0.279 0.241,0.133 v 68.866 c 0,2.279 0.926,4.343 2.424,5.841 1.498,1.497 3.561,2.423 5.84,2.423 z m -5.099,-8.731 h 0.467 c 0,1.278 0.519,2.433 1.358,3.274 0.841,0.84 1.996,1.358 3.274,1.358 1.278,0 2.433,-0.518 3.274,-1.358 0.839,-0.841 1.358,-1.996 1.358,-3.274 V -41.208 H -4.632 V -8.731 H -5.099 -5.566 V -42.142 H 5.566 V -8.731 C 5.565,-5.66 3.07,-3.166 0,-3.165 -3.07,-3.166 -5.565,-5.66 -5.566,-8.731 Z m 20.57,-85.591 h -0.467 c 0,-4.138 -1.681,-7.886 -4.399,-10.605 -2.719,-2.718 -6.467,-4.399 -10.605,-4.4 -4.137,0.001 -7.886,1.682 -10.604,4.4 -2.718,2.719 -4.4,6.467 -4.4,10.605 0,5.963 3.534,11.362 9.004,13.753 0.831,0.363 1.368,1.184 1.368,2.091 v 32.704 h 9.264 v -32.704 c 0,-0.907 0.537,-1.728 1.368,-2.091 5.47,-2.391 9.005,-7.79 9.004,-13.753 h 0.467 0.467 c 0,6.335 -3.754,12.069 -9.563,14.608 -0.492,0.215 -0.809,0.701 -0.809,1.236 V -44.84 H -5.566 v -33.638 c 0,-0.536 -0.317,-1.021 -0.809,-1.236 -5.809,-2.539 -9.563,-8.273 -9.563,-14.608 0.001,-8.79 7.148,-15.938 15.938,-15.938 8.79,0 15.937,7.148 15.938,15.938 z" />
      </g>
      <g
         transform="matrix(0.35277777,0,0,-0.35277777,251.03226,236.84506)"
         id="g990">
        <path
           inkscape:connector-curvature="0"
           id="path992"
           style="fill:#000000;fill-opacity:1;fill-rule:nonzero;stroke:none"
           d="m 0,0 h -13.83 c -1.001,0 -1.816,-0.815 -1.816,-1.816 0,-1.001 0.815,-1.816 1.816,-1.816 H 0 c 1.001,0 1.816,0.815 1.816,1.816 C 1.816,-0.815 1.001,0 0,0" />
      </g>
      <g
         transform="matrix(0.35277777,0,0,-0.35277777,251.03226,236.84506)"
         id="g994">
        <path
           inkscape:connector-curvature="0"
           id="path996"
           style="fill:#000000;fill-opacity:1;fill-rule:nonzero;stroke:none"
           d="m 0,0 v 0.467 h -13.83 c -1.26,-0.001 -2.282,-1.023 -2.282,-2.283 10e-4,-1.26 1.022,-2.282 2.282,-2.283 H 0 c 1.26,0.001 2.282,1.023 2.283,2.283 C 2.282,-0.556 1.26,0.466 0,0.467 V 0 -0.467 C 0.743,-0.468 1.348,-1.073 1.349,-1.816 1.348,-2.559 0.743,-3.164 0,-3.165 h -13.83 c -0.742,10e-4 -1.347,0.606 -1.349,1.349 0.002,0.743 0.607,1.348 1.349,1.349 H 0 Z" />
      </g>
      <g
         transform="matrix(0.35277777,0,0,-0.35277777,251.03226,230.74658)"
         id="g998">
        <path
           inkscape:connector-curvature="0"
           id="path1000"
           style="fill:#000000;fill-opacity:1;fill-rule:nonzero;stroke:none"
           d="m 0,0 h -6.915 c -1.001,0 -1.816,-0.815 -1.816,-1.816 0,-1.001 0.815,-1.816 1.816,-1.816 H 0 c 1.001,0 1.816,0.815 1.816,1.816 C 1.816,-0.815 1.001,0 0,0" />
      </g>
      <g
         transform="matrix(0.35277777,0,0,-0.35277777,251.03226,230.74658)"
         id="g1002">
        <path
           inkscape:connector-curvature="0"
           id="path1004"
           style="fill:#000000;fill-opacity:1;fill-rule:nonzero;stroke:none"
           d="m 0,0 v 0.467 h -6.915 c -1.26,-0.001 -2.282,-1.023 -2.283,-2.283 0.001,-1.26 1.023,-2.282 2.283,-2.283 H 0 c 1.26,0.001 2.282,1.023 2.283,2.283 C 2.282,-0.556 1.26,0.466 0,0.467 V 0 -0.467 C 0.743,-0.468 1.348,-1.073 1.349,-1.816 1.348,-2.559 0.743,-3.164 0,-3.165 h -6.915 c -0.742,10e-4 -1.347,0.606 -1.349,1.349 0.002,0.743 0.607,1.348 1.349,1.349 H 0 Z" />
      </g>
      <g
         transform="matrix(0.35277777,0,0,-0.35277777,251.03226,249.0422)"
         id="g1006">
        <path
           inkscape:connector-curvature="0"
           id="path1008"
           style="fill:#000000;fill-opacity:1;fill-rule:nonzero;stroke:none"
           d="m 0,0 h -13.83 c -1.001,0 -1.816,-0.815 -1.816,-1.816 0,-1.001 0.815,-1.816 1.816,-1.816 H 0 c 1.001,0 1.816,0.815 1.816,1.816 C 1.816,-0.815 1.001,0 0,0" />
      </g>
      <g
         transform="matrix(0.35277777,0,0,-0.35277777,251.03226,249.0422)"
         id="g1010">
        <path
           inkscape:connector-curvature="0"
           id="path1012"
           style="fill:#000000;fill-opacity:1;fill-rule:nonzero;stroke:none"
           d="m 0,0 v 0.467 h -13.83 c -1.26,-0.001 -2.281,-1.023 -2.282,-2.283 0,-1.26 1.022,-2.282 2.282,-2.283 H 0 c 1.26,0.001 2.282,1.023 2.283,2.283 C 2.282,-0.556 1.26,0.466 0,0.467 V 0 -0.467 C 0.743,-0.468 1.348,-1.073 1.349,-1.816 1.348,-2.559 0.743,-3.164 0,-3.165 h -13.83 c -0.742,10e-4 -1.347,0.606 -1.349,1.349 0.002,0.743 0.607,1.348 1.349,1.349 H 0 Z" />
      </g>
      <g
         transform="matrix(0.35277777,0,0,-0.35277777,251.03226,242.94369)"
         id="g1014">
        <path
           inkscape:connector-curvature="0"
           id="path1016"
           style="fill:#000000;fill-opacity:1;fill-rule:nonzero;stroke:none"
           d="m 0,0 h -6.915 c -1.001,0 -1.816,-0.815 -1.816,-1.816 0,-1.001 0.815,-1.816 1.816,-1.816 H 0 c 1.001,0 1.816,0.815 1.816,1.816 C 1.816,-0.815 1.001,0 0,0" />
      </g>
      <g
         transform="matrix(0.35277777,0,0,-0.35277777,251.03226,242.94369)"
         id="g1018">
        <path
           inkscape:connector-curvature="0"
           id="path1020"
           style="fill:#000000;fill-opacity:1;fill-rule:nonzero;stroke:none"
           d="m 0,0 v 0.467 h -6.915 c -1.26,-0.001 -2.282,-1.023 -2.283,-2.283 0.001,-1.26 1.023,-2.282 2.283,-2.283 H 0 c 1.26,0.001 2.282,1.023 2.283,2.283 C 2.282,-0.556 1.26,0.466 0,0.467 V 0 -0.467 C 0.743,-0.468 1.348,-1.073 1.349,-1.816 1.348,-2.558 0.743,-3.164 0,-3.165 h -6.915 c -0.742,10e-4 -1.347,0.607 -1.349,1.349 0.002,0.743 0.607,1.348 1.349,1.349 H 0 Z" />
      </g>
      <g
         transform="matrix(0.35277777,0,0,-0.35277777,282.60364,245.99465)"
         id="g1022">
        <path
           inkscape:connector-curvature="0"
           id="path1024"
           style="fill:#000000;fill-opacity:1;fill-rule:nonzero;stroke:none"
           d="M 0,0 C 7.151,0 12.969,5.818 12.969,12.969 12.968,19.163 8.557,24.516 2.479,25.697 l -0.713,0.138 -0.073,0.723 c -0.596,5.908 -3.359,11.377 -7.781,15.4 -4.451,4.051 -10.211,6.282 -16.218,6.282 -4.071,0 -8.113,-1.047 -11.688,-3.028 l -1.178,-0.653 -0.256,1.323 c -2.046,10.587 -11.36,18.271 -22.146,18.271 -12.44,0 -22.561,-10.121 -22.561,-22.561 v -61.618 l -0.298,-0.288 c -6.685,-6.452 -10.35,-15.472 -10.057,-24.747 0.544,-17.192 14.432,-31.18 31.617,-31.846 0.431,-0.017 0.874,-0.025 1.316,-0.025 8.533,0 16.63,3.27 22.801,9.206 6.523,6.275 10.115,14.702 10.115,23.727 0,2.596 -0.313,5.201 -0.932,7.742 l -0.294,1.209 h 8.747 c 4.292,0 7.784,3.493 7.784,7.786 0,3.427 -2.201,6.413 -5.476,7.432 l -0.576,0.179 -0.098,0.596 c -1.097,6.67 -6.805,11.511 -13.571,11.511 -1.585,0 -3.149,-0.273 -4.648,-0.811 l -1.308,-0.47 V 0 Z m -34.568,-12.806 c 1.643,1.067 3.548,1.631 5.511,1.631 v 0 c 4.639,0 8.674,-3.142 9.812,-7.64 l 0.215,-0.849 -0.82,-0.307 c -0.521,-0.195 -1.024,-0.448 -1.494,-0.752 -0.84,-0.544 -1.082,-1.67 -0.538,-2.511 0.336,-0.52 0.907,-0.83 1.527,-0.83 0.349,0 0.689,0.101 0.984,0.292 0.66,0.426 1.428,0.655 2.222,0.66 l 0.038,10e-4 0.022,-0.002 c 2.275,-0.017 4.12,-1.871 4.12,-4.148 0,-2.291 -1.862,-4.155 -4.151,-4.155 h -10.029 l -0.257,0.586 c -1.739,3.973 -4.198,7.511 -7.309,10.516 l -0.298,0.288 v 6.931 z m -0.445,48.101 v 4.897 l 0.389,0.294 c 3.53,2.658 7.905,4.122 12.318,4.122 10.284,0 19.019,-7.69 20.319,-17.886 l 0.113,-0.89 -0.877,-0.19 c -1.528,-0.33 -2.969,-0.928 -4.283,-1.778 -0.841,-0.544 -1.083,-1.67 -0.539,-2.511 0.336,-0.52 0.907,-0.83 1.528,-0.83 0.348,0 0.688,0.101 0.983,0.291 1.501,0.971 3.245,1.486 5.044,1.489 l 0.039,10e-4 0.013,-0.002 C 5.167,22.284 9.336,18.104 9.336,12.969 9.336,10.478 8.364,8.135 6.599,6.369 4.834,4.604 2.49,3.632 0,3.632 h -35.013 v 23.561 z m -3.632,-8.102 v -48.02 c 0,-0.516 0.22,-1.008 0.604,-1.352 6.208,-5.564 9.768,-13.517 9.768,-21.82 0,-8.028 -3.196,-15.525 -9.001,-21.109 -5.517,-5.308 -12.684,-8.192 -20.288,-8.192 -0.39,0 -0.779,0.008 -1.171,0.023 -15.288,0.592 -27.643,13.037 -28.127,28.332 -0.274,8.667 3.281,16.965 9.753,22.766 0.384,0.344 0.604,0.837 0.604,1.352 v 62.419 c 0,10.438 8.492,18.929 18.929,18.929 10.438,0 18.929,-8.491 18.929,-18.929 v -6.297 z" />
      </g>
      <g
         transform="matrix(0.35277777,0,0,-0.35277777,282.60364,245.99465)"
         id="g1026">
        <path
           inkscape:connector-curvature="0"
           id="path1028"
           style="fill:#000000;fill-opacity:1;fill-rule:nonzero;stroke:none"
           d="M 0,0 V -0.467 C 7.41,-0.466 13.435,5.559 13.435,12.969 13.434,19.387 8.866,24.93 2.569,26.155 l -0.373,0.073 -0.038,0.377 c -0.608,6.023 -3.426,11.599 -7.932,15.699 -4.536,4.128 -10.409,6.403 -16.532,6.402 -4.151,0 -8.269,-1.067 -11.914,-3.085 l -0.616,-0.341 -0.133,0.69 c -2.09,10.808 -11.595,18.649 -22.605,18.65 -12.699,-0.001 -23.027,-10.329 -23.027,-23.028 v -61.42 l -0.156,-0.151 c -6.528,-6.3 -10.216,-15.011 -10.216,-24.047 0,-0.349 0.005,-0.699 0.016,-1.049 0.554,-17.44 14.634,-31.621 32.066,-32.298 0.437,-0.017 0.886,-0.026 1.334,-0.026 8.652,0 16.869,3.318 23.125,9.337 6.612,6.36 10.259,14.913 10.258,24.063 0,2.634 -0.318,5.275 -0.945,7.853 l -0.154,0.631 h 8.153 c 4.551,10e-4 8.25,3.702 8.25,8.253 0.002,3.629 -2.335,6.8 -5.803,7.878 l -0.301,0.093 -0.052,0.311 c -1.132,6.895 -7.039,11.905 -14.031,11.903 -1.639,0 -3.257,-0.282 -4.806,-0.839 l -0.683,-0.245 v 7.694 H 0 V 0 0.467 h -35.48 v -9.956 l 1.933,0.695 c 1.449,0.52 2.958,0.783 4.49,0.784 6.54,-0.002 12.048,-4.675 13.11,-11.121 l 0.098,-0.596 0.047,-0.284 0.851,-0.265 c 3.082,-0.96 5.146,-3.762 5.148,-6.986 0,-2.019 -0.82,-3.846 -2.146,-5.173 -1.327,-1.326 -3.153,-2.146 -5.171,-2.146 h -9.341 l 0.435,-1.786 c 0.609,-2.506 0.918,-5.074 0.918,-7.632 -0.001,-8.901 -3.538,-17.2 -9.971,-23.39 -6.086,-5.854 -14.065,-9.075 -22.478,-9.076 -0.436,0 -0.873,0.008 -1.298,0.025 -16.938,0.654 -30.633,14.449 -31.168,31.394 -0.011,0.341 -0.016,0.681 -0.016,1.02 -0.001,8.781 3.586,17.253 9.93,23.376 l 0.299,0.288 0.142,0.138 v 61.816 c 0.001,6.092 2.477,11.613 6.479,15.615 4.002,4.002 9.523,6.479 15.615,6.479 10.561,10e-4 19.684,-7.526 21.688,-17.893 l 0.378,-1.954 1.741,0.965 c 3.505,1.942 7.47,2.969 11.461,2.969 5.891,-0.001 11.538,-2.187 15.904,-6.16 4.337,-3.947 7.046,-9.309 7.631,-15.102 L 1.301,25.788 1.336,25.443 2.391,25.239 C 8.247,24.101 12.502,18.938 12.502,12.969 12.501,9.521 11.1,6.398 8.836,4.133 6.57,1.868 3.447,0.467 0,0.467 Z m -34.568,-12.806 0.254,-0.392 c 1.568,1.018 3.384,1.556 5.257,1.556 h 0.466 v 0.467 h -0.466 v -0.467 c 4.426,0 8.274,-2.996 9.36,-7.288 l 0.112,-0.443 -0.429,-0.161 c -0.553,-0.207 -1.085,-0.475 -1.583,-0.797 -0.675,-0.437 -1.043,-1.172 -1.043,-1.92 0,-0.424 0.119,-0.855 0.366,-1.237 0.421,-0.652 1.143,-1.044 1.919,-1.043 0.439,0 0.868,0.128 1.237,0.366 0.585,0.379 1.266,0.582 1.972,0.586 l 0.022,0.001 0.003,-0.001 0.014,-10e-4 h 0.014 c 2.018,-0.014 3.658,-1.662 3.657,-3.681 0,-1.018 -0.412,-1.937 -1.08,-2.606 -0.669,-0.669 -1.588,-1.082 -2.604,-1.082 h -9.724 l -0.134,0.306 c -1.763,4.028 -4.258,7.618 -7.413,10.664 l -0.155,0.151 v 6.479 l 0.232,0.151 -0.254,0.392 -0.254,0.391 -0.446,-0.289 -0.212,-0.138 v -7.382 l 0.441,-0.426 c 3.067,-2.963 5.49,-6.449 7.206,-10.367 l 0.256,-0.586 0.123,-0.28 h 10.334 c 2.548,10e-4 4.617,2.072 4.618,4.622 -10e-4,2.535 -2.052,4.595 -4.584,4.615 l -0.003,-0.467 0.031,0.466 -0.021,10e-4 -0.019,0.002 -0.057,-0.001 h 0.002 c -0.881,-0.006 -1.737,-0.26 -2.472,-0.735 -0.22,-0.143 -0.471,-0.217 -0.73,-0.217 -0.464,0 -0.884,0.229 -1.135,0.617 -0.147,0.227 -0.216,0.478 -0.216,0.729 0.001,0.445 0.217,0.878 0.616,1.136 0.442,0.285 0.914,0.523 1.404,0.707 l 0.819,0.307 0.392,0.146 -0.317,1.254 c -1.19,4.705 -5.412,7.993 -10.265,7.993 h -0.467 v -0.467 h 0.467 v 0.467 c -2.052,0 -4.047,-0.591 -5.765,-1.707 z m -0.445,48.101 h 0.467 v 4.664 l 0.203,0.154 c 3.447,2.596 7.727,4.028 12.037,4.028 10.048,0.001 18.586,-7.516 19.856,-17.478 l 0.059,-0.465 -0.458,-0.099 c -1.583,-0.342 -3.078,-0.963 -4.439,-1.843 -0.674,-0.436 -1.043,-1.172 -1.042,-1.92 -10e-4,-0.423 0.118,-0.855 0.365,-1.236 0.421,-0.652 1.143,-1.045 1.92,-1.044 0.438,0 0.867,0.128 1.236,0.367 1.426,0.921 3.082,1.41 4.792,1.414 h 0.001 0.04 l -0.003,0.467 -0.043,-0.465 0.013,-10e-4 0.021,-0.002 H 0.033 C 4.907,21.819 8.87,17.846 8.869,12.969 V 12.968 C 8.869,10.6 7.948,8.379 6.269,6.699 4.589,5.021 2.368,4.1 0,4.099 h -34.546 v 23.094 8.102 h -0.467 -0.467 V 27.193 3.165 H 0 c 2.612,-10e-4 5.079,1.022 6.929,2.874 1.852,1.85 2.875,4.317 2.874,6.929 v 10e-4 c -0.001,5.393 -4.377,9.78 -9.767,9.8 L 0.034,22.302 0.078,22.767 0.065,22.769 0.042,22.771 -0.021,22.77 h 0.002 c -1.887,-0.003 -3.721,-0.544 -5.297,-1.563 -0.22,-0.143 -0.471,-0.217 -0.729,-0.217 -0.465,0 -0.885,0.229 -1.136,0.617 -0.146,0.227 -0.215,0.478 -0.215,0.729 0,0.445 0.217,0.878 0.615,1.136 1.268,0.819 2.655,1.395 4.129,1.714 l 0.877,0.189 0.419,0.091 -0.168,1.315 c -1.331,10.431 -10.262,18.292 -20.782,18.293 -4.516,0 -8.986,-1.496 -12.599,-4.215 l -0.389,-0.294 -0.186,-0.14 v -5.13 z m -3.632,-8.102 h -0.467 v -48.02 c 0,-0.649 0.276,-1.267 0.759,-1.7 6.109,-5.475 9.613,-13.302 9.613,-21.472 -0.001,-7.904 -3.143,-15.273 -8.857,-20.772 -5.434,-5.226 -12.479,-8.061 -19.965,-8.062 -0.383,0 -0.767,0.007 -1.153,0.022 -15.041,0.581 -27.204,12.832 -27.678,27.88 -0.01,0.307 -0.015,0.614 -0.015,0.92 0.001,8.195 3.472,15.98 9.613,21.484 0.483,0.433 0.759,1.052 0.759,1.7 v 62.419 c 0,5.091 2.07,9.704 5.414,13.048 3.345,3.344 7.957,5.414 13.048,5.414 5.091,0 9.704,-2.07 13.048,-5.414 3.344,-3.344 5.414,-7.957 5.414,-13.048 v -6.297 -8.102 h 0.467 0.467 v 8.102 6.297 c -0.001,10.696 -8.7,19.395 -19.396,19.396 -10.696,-10e-4 -19.395,-8.7 -19.396,-19.396 v -62.419 c 0.001,-0.382 -0.163,-0.749 -0.448,-1.004 -6.338,-5.68 -9.924,-13.721 -9.923,-22.18 0,-0.316 0.005,-0.632 0.015,-0.949 0.493,-15.542 13.04,-28.181 28.575,-28.784 0.397,-0.015 0.793,-0.023 1.189,-0.023 7.723,-0.001 15.01,2.933 20.612,8.323 5.894,5.669 9.145,13.293 9.144,21.445 0,8.437 -3.617,16.515 -9.924,22.168 -0.284,0.255 -0.448,0.622 -0.448,1.004 v 48.02 z" />
      </g>
    </g>
  </g>
</svg>
