<?xml version="1.0" encoding="UTF-8" standalone="no"?>
<!-- Created with Inkscape (http://www.inkscape.org/) -->

<svg
   xmlns:dc="http://purl.org/dc/elements/1.1/"
   xmlns:cc="http://creativecommons.org/ns#"
   xmlns:rdf="http://www.w3.org/1999/02/22-rdf-syntax-ns#"
   xmlns:svg="http://www.w3.org/2000/svg"
   xmlns="http://www.w3.org/2000/svg"
   xmlns:sodipodi="http://sodipodi.sourceforge.net/DTD/sodipodi-0.dtd"
   xmlns:inkscape="http://www.inkscape.org/namespaces/inkscape"
   width="60mm"
   height="60mm"
   viewBox="0 0 60 60"
   version="1.1"
   id="svg5046"
   inkscape:version="0.92.5 (2060ec1f9f, 2020-04-08)"
   sodipodi:docname="economia-circolare.svg">
  <defs
     id="defs5040" />
  <sodipodi:namedview
     id="base"
     pagecolor="#ffffff"
     bordercolor="#666666"
     borderopacity="1.0"
     inkscape:pageopacity="0.0"
     inkscape:pageshadow="2"
     inkscape:zoom="0.35"
     inkscape:cx="-409.51827"
     inkscape:cy="-224.25678"
     inkscape:document-units="mm"
     inkscape:current-layer="layer1"
     showgrid="false"
     fit-margin-top="0"
     fit-margin-left="0"
     fit-margin-right="0"
     fit-margin-bottom="0"
     inkscape:window-width="1920"
     inkscape:window-height="1055"
     inkscape:window-x="0"
     inkscape:window-y="0"
     inkscape:window-maximized="1" />
  <metadata
     id="metadata5043">
    <rdf:RDF>
      <cc:Work
         rdf:about="">
        <dc:format>image/svg+xml</dc:format>
        <dc:type
           rdf:resource="http://purl.org/dc/dcmitype/StillImage" />
        <dc:title></dc:title>
      </cc:Work>
    </rdf:RDF>
  </metadata>
  <g
     inkscape:label="Livello 1"
     inkscape:groupmode="layer"
     id="layer1"
     transform="translate(-49.387422,-29.498728)">
    <path
       d="m 106.17472,60.505925 c 0,-3.564467 -1.46473,-7.049559 -4.01919,-9.561336 -2.518838,-2.477206 -5.81978,-3.810706 -9.28688,-3.751792 -3.24485,0 -6.157383,1.011767 -8.429625,2.925233 l -0.811741,0.683684 0.635706,-4.927247 c -0.01304,-0.415573 -0.358775,-0.844198 -0.760942,-0.947209 -0.420158,0.02222 -0.848077,0.379589 -0.936625,0.788106 l -0.88265,6.682669 -0.0056,0.02293 c -0.08326,0.333375 -0.02858,0.594078 0.194733,0.929922 0.18062,0.270581 0.44097,0.445206 0.663575,0.445206 l 0.05327,0.0035 6.773686,0.878064 h 0.09913 c 0.390173,0 0.739775,-0.317147 0.845257,-0.759884 -0.02155,-0.421219 -0.381391,-0.851608 -0.79167,-0.938391 l -5.107165,-0.773995 0.772936,-0.590902 c 2.335038,-1.785761 4.947356,-2.729442 7.554738,-2.729442 3.155951,0 6.110462,1.217083 8.320267,3.426531 2.20979,2.209799 3.42652,5.164666 3.42652,8.320263 0,6.477 -5.269436,11.746794 -11.746787,11.746794 -0.113597,0 -2.820106,-0.01799 -5.781674,-1.591027 -2.587634,-1.37407 -5.93973,-4.280253 -7.215373,-10.322278 -1.171576,-5.653616 -3.825875,-9.603669 -7.88917,-11.742208 -2.788355,-1.467203 -5.322711,-1.531055 -5.737931,-1.531055 -0.03669,0 -0.0568,3.52e-4 -0.05927,0 h -0.01341 c -3.604682,0 -6.983587,1.393825 -9.514415,3.924652 -2.530827,2.530475 -3.9243,5.909381 -3.9243,9.514417 0,7.410449 6.028619,13.439068 13.438716,13.439068 3.991328,0 7.777339,-1.782234 10.387541,-4.889852 l 0.02434,-0.02646 c 0.34537,-0.345722 0.198261,-0.854428 -0.12594,-1.178631 -0.151342,-0.151341 -0.336198,-0.217664 -0.548217,-0.195791 -0.212373,0.02117 -0.436033,0.132997 -0.616304,0.307975 -2.216502,2.726972 -5.493808,4.290482 -8.995479,4.290482 -3.155597,0 -6.110463,-1.217082 -8.320263,-3.42653 -2.209448,-2.2098 -3.426531,-5.164666 -3.426531,-8.320263 0,-3.155598 1.217083,-6.110464 3.426531,-8.320264 2.2098,-2.209447 5.164666,-3.42653 8.320263,-3.42653 0.08537,-0.0035 2.39783,-0.04939 5.047191,1.404761 4.40443,2.41688 6.206419,7.048499 6.942313,10.507838 1.121834,5.404908 3.895725,9.256183 8.244769,11.449051 3.309763,1.668637 6.307315,1.697918 6.3373,1.697918 7.40975,0 13.43836,-6.028619 13.43836,-13.438716"
       style="fill:#000000;fill-opacity:1;fill-rule:nonzero;stroke:none;stroke-width:0.35277775"
       id="path964"
       inkscape:connector-curvature="0" />
    <path
       d="m 106.17464,60.50435 h 0.17639 c -2.6e-4,-3.612798 -1.48378,-7.141633 -4.07176,-9.687277 -2.496963,-2.456039 -5.75804,-3.804355 -9.190921,-3.804003 -0.07408,0 -0.148519,0 -0.222957,0.0035 l 0.0032,0.176389 v -0.176391 c -3.281185,0 -6.237462,1.024467 -8.543218,2.96686 l -0.46534,0.391583 0.579615,-4.491919 -7.94e-4,-0.01376 c -0.0085,-0.255411 -0.114652,-0.498475 -0.27305,-0.696031 -0.159454,-0.197202 -0.373944,-0.352777 -0.620184,-0.41663 l -0.02602,-0.0067 h -0.02717 c -0.256823,0.01411 -0.50024,0.125942 -0.696383,0.290337 -0.195792,0.164746 -0.34784,0.384881 -0.403225,0.636411 l -0.0013,0.0071 -0.882298,6.6802 -0.0032,0.01341 v 0 c -0.02717,0.109008 -0.04233,0.215194 -0.04233,0.320674 -7.94e-4,0.257176 0.09243,0.497771 0.261408,0.750006 v 0 c 0.206375,0.303037 0.494948,0.517877 0.810331,0.523876 v -0.176409 l -0.01093,0.176036 0.04727,0.0035 6.779332,0.878769 h 0.110418 c 0.243769,0 0.470607,-0.09913 0.6477,-0.259291 0.177094,-0.160162 0.308327,-0.381 0.369007,-0.636059 l 0.006,-0.02469 -0.0013,-0.02505 C 90.469161,53.650555 90.35663,53.40608 90.191882,53.209583 90.026076,53.013086 89.804532,52.861038 89.55159,52.806712 h -0.0049 l -4.701516,-0.71226 0.44309,-0.339018 c 2.308929,-1.7653 4.88315,-2.693106 7.447492,-2.693106 3.110441,3.44e-4 6.018387,1.198386 8.195374,3.375024 2.177,2.176992 3.37503,5.085292 3.37503,8.195381 0,3.190169 -1.29716,6.081889 -3.39266,8.177388 -2.095857,2.0955 -4.987224,3.393018 -8.177744,3.393018 -0.09666,2.64e-4 -2.777067,-0.01765 -5.699125,-1.570215 -2.551997,-1.358547 -5.858582,-4.213578 -7.125407,-10.203039 v 3.44e-4 c -1.176161,-5.687483 -3.861505,-9.696802 -7.979833,-11.862505 -2.82575,-1.486253 -5.387269,-1.550811 -5.819775,-1.551164 -0.03951,0 -0.05821,3.52e-4 -0.06597,0 l 0.0067,0.176389 -0.0021,-0.176389 h -0.01341 l 0.0021,0.176389 v -0.17638 c -3.650191,0 -7.076016,1.412522 -9.639299,3.976158 -2.563816,2.563284 -3.976338,5.988756 -3.975985,9.6393 0,7.508169 6.107288,13.615105 13.615104,13.615457 4.043892,0 7.879997,-1.80622 10.522655,-4.952646 l -0.135113,-0.113594 0.129822,0.119238 0.02434,-0.02646 -0.129822,-0.119239 0.124884,0.124884 c 0.171802,-0.170745 0.251177,-0.388762 0.249766,-0.598664 -0.0018,-0.313267 -0.155928,-0.608189 -0.376061,-0.829734 -0.159455,-0.161572 -0.370417,-0.252941 -0.594783,-0.25153 -0.03175,0 -0.06385,0.0035 -0.09631,0.0053 h 7.15e-4 c -0.261056,0.02681 -0.515408,0.157692 -0.721431,0.356659 l -0.0074,0.0071 -0.0067,0.0081 c -2.183704,2.686401 -5.409504,4.225218 -8.858612,4.22557 -3.110089,0 -6.018388,-1.198386 -8.19538,-3.375025 -2.176639,-2.176991 -3.374672,-5.085291 -3.375025,-8.19538 3.53e-4,-3.110089 1.198386,-6.018389 3.375025,-8.19538 2.176984,-2.176675 5.085283,-3.374708 8.195372,-3.375061 h 0.0025 0.0025 0.05398 c 0.366889,0 2.49555,0.06174 4.903259,1.383594 2.168877,1.190625 3.698169,2.925586 4.77908,4.79672 1.080911,1.87078 1.710619,3.876322 2.075744,5.593291 v 0 c 1.127124,5.444419 3.938764,9.354961 8.337901,11.570757 3.348215,1.686983 6.367992,1.715913 6.415971,1.716617 h 7.94e-4 c 7.507463,0 13.614403,-6.107288 13.614763,-13.615104 h -0.17639 -0.17639 c 0,3.656894 -1.48696,6.971241 -3.88903,9.373658 -2.402063,2.401711 -5.716411,3.888669 -9.372953,3.888669 h 2.64e-4 c -0.01199,0 -2.987323,-0.02858 -6.258279,-1.679223 -4.29895,-2.170288 -7.035094,-5.961944 -8.151281,-11.326988 v 0 h -3.44e-4 c -0.370845,-1.742722 -1.010078,-3.782483 -2.115331,-5.696302 -1.105253,-1.91382 -2.679347,-3.702756 -4.9149,-4.929364 -2.481792,-1.361722 -4.668308,-1.426986 -5.072944,-1.427339 -0.03422,0 -0.05539,0 -0.0635,0 l 0.0046,0.176389 v -0.176361 c -3.201106,0 -6.202538,1.235429 -8.444794,3.478389 -2.242608,2.242255 -3.478741,5.243689 -3.478389,8.444794 -3.52e-4,3.201105 1.235781,6.202539 3.478389,8.444794 2.242256,2.242963 5.243688,3.478741 8.444794,3.478389 3.554589,0 6.883047,-1.587853 9.132358,-4.355747 l -0.136878,-0.111125 0.122767,0.126648 c 0.154869,-0.150989 0.347486,-0.243769 0.511175,-0.258939 h 3.44e-4 l 0.05997,-0.0035 c 0.135114,0.0035 0.240241,0.04551 0.345369,0.148167 0.16757,0.166157 0.274461,0.390878 0.272697,0.580319 -0.0014,0.128412 -0.04057,0.2413 -0.146755,0.34925 l -0.0025,0.0035 -0.02681,0.02928 -0.0028,0.0035 -0.0025,0.0035 c -2.577754,3.068462 -6.314024,4.826354 -10.252435,4.826709 -3.656894,0 -6.971241,-1.487313 -9.373657,-3.889023 -2.401669,-2.40201 -3.888628,-5.71671 -3.888628,-9.373604 0,-3.559175 1.374775,-6.891514 3.872795,-9.389886 2.498019,-2.497667 5.830357,-3.872442 9.389532,-3.872794 h 0.0014 0.01446 0.0021 0.0025 0.0018 l 0.05045,-3.52e-4 c 0.397581,0 2.905478,0.06244 5.655734,1.510594 4.008966,2.111375 6.632222,6.002514 7.798506,11.622264 h 2.64e-4 c 1.284111,6.094236 4.682067,9.051924 7.304969,10.441869 3.001433,1.592789 5.733698,1.610781 5.864579,1.611488 6.575071,0 11.923192,-5.348463 11.923192,-11.923182 2.6e-4,-3.201106 -1.23543,-6.202539 -3.47805,-8.444795 -2.242604,-2.242961 -5.244038,-3.478741 -8.445142,-3.478388 -2.650421,0 -5.300487,0.959908 -7.661981,2.765777 l -1.102783,0.843492 5.517798,0.835731 0.02646,-0.174273 -0.03669,0.172509 c 0.15734,0.03246 0.321027,0.138641 0.44309,0.284691 0.123119,0.145345 0.201435,0.326672 0.209196,0.49036 l 0.176037,-0.0092 -0.171804,-0.04092 c -0.0445,0.188027 -0.140806,0.346777 -0.26216,0.455786 -0.121709,0.109714 -0.264584,0.168628 -0.41134,0.168628 h -0.08749 l -6.768393,-0.877359 -0.05891,-0.0039 h -0.0056 -0.0056 c -0.129823,0.0063 -0.36195,-0.128763 -0.516822,-0.366888 v 0 c -0.147108,-0.22225 -0.201083,-0.381706 -0.202141,-0.554214 0,-0.07197 0.01024,-0.14852 0.03175,-0.23495 h 2.64e-4 l 0.0056,-0.02258 0.0021,-0.0095 0.88406,-6.692195 -0.174977,-0.02328 0.172508,0.03739 c 0.03332,-0.15663 0.139503,-0.319614 0.285198,-0.441322 0.14464,-0.122061 0.325263,-0.200025 0.488246,-0.208139 l -0.0092,-0.176036 -0.04374,0.170745 c 0.155575,0.03951 0.315383,0.149577 0.432858,0.296333 0.117827,0.14605 0.191204,0.324908 0.195437,0.485422 l 0.17639,-0.0053 -0.174977,-0.02258 -0.693915,5.376686 1.158523,-0.975431 c 2.238751,-1.885245 5.107541,-2.883606 8.316053,-2.883959 h 0.0013 0.0013 c 0.07267,0 0.144992,-0.0035 0.216958,-0.0035 3.340452,0 6.509457,1.309511 8.943619,3.702755 2.52025,2.478264 3.96664,5.919612 3.96629,9.435748 z"
       style="fill:#000000;fill-opacity:1;fill-rule:nonzero;stroke:none;stroke-width:0.35277775"
       id="path968"
       inkscape:connector-curvature="0" />
  </g>
</svg>
