<?xml version="1.0" encoding="UTF-8" standalone="no"?>
<!-- Created with Inkscape (http://www.inkscape.org/) -->

<svg
   xmlns:dc="http://purl.org/dc/elements/1.1/"
   xmlns:cc="http://creativecommons.org/ns#"
   xmlns:rdf="http://www.w3.org/1999/02/22-rdf-syntax-ns#"
   xmlns:svg="http://www.w3.org/2000/svg"
   xmlns="http://www.w3.org/2000/svg"
   xmlns:sodipodi="http://sodipodi.sourceforge.net/DTD/sodipodi-0.dtd"
   xmlns:inkscape="http://www.inkscape.org/namespaces/inkscape"
   width="60mm"
   height="60mm"
   viewBox="0 0 60 60"
   version="1.1"
   id="svg5046"
   inkscape:version="0.92.5 (2060ec1f9f, 2020-04-08)"
   sodipodi:docname="mobilita.svg">
  <defs
     id="defs5040" />
  <sodipodi:namedview
     id="base"
     pagecolor="#ffffff"
     bordercolor="#666666"
     borderopacity="1.0"
     inkscape:pageopacity="0.0"
     inkscape:pageshadow="2"
     inkscape:zoom="0.35"
     inkscape:cx="-14.815703"
     inkscape:cy="-370.30683"
     inkscape:document-units="mm"
     inkscape:current-layer="layer1"
     showgrid="false"
     fit-margin-top="0"
     fit-margin-left="0"
     fit-margin-right="0"
     fit-margin-bottom="0"
     inkscape:window-width="1920"
     inkscape:window-height="1055"
     inkscape:window-x="0"
     inkscape:window-y="0"
     inkscape:window-maximized="1" />
  <metadata
     id="metadata5043">
    <rdf:RDF>
      <cc:Work
         rdf:about="">
        <dc:format>image/svg+xml</dc:format>
        <dc:type
           rdf:resource="http://purl.org/dc/dcmitype/StillImage" />
        <dc:title></dc:title>
      </cc:Work>
    </rdf:RDF>
  </metadata>
  <g
     inkscape:label="Livello 1"
     inkscape:groupmode="layer"
     id="layer1"
     transform="translate(-49.387422,-29.498728)">
    <path
       d="m 97.202702,55.946129 c -0.7613,0 -1.5039,0.0787 -2.22427,0.22014 l -1.99108,-7.08025 v -5.46982 c 0,-0.24906 -0.10124,-0.48754 -0.28116,-0.6604 l -2.7873,-2.68252 c -0.36547,-0.35031 -0.94544,-0.34008 -1.29645,0.0251 -0.35066,0.36477 -0.34008,0.94509 0.0254,1.2961 l 2.50613,2.41159 v 4.29013 h -16.57773 v -2.84692 h 1.08232 c 1.30034,0 2.35867,-1.05869 2.35867,-2.35973 0,-1.30069 -1.05833,-2.35902 -2.35867,-2.35902 h -3.47522 c -1.30069,0 -2.35867,1.05833 -2.35867,2.35902 0,1.30104 1.05798,2.35973 2.35867,2.35973 h 0.55951 v 3.48721 l -5.59929,8.45397 c -1.65241,-0.91758 -3.55071,-1.44428 -5.57107,-1.44428 -6.35035,0 -11.51713,5.16643 -11.51713,11.51643 0,6.35071 5.16678,11.51749 11.51713,11.51749 6.04062,0 11.00032,-4.67818 11.47022,-10.60062 h 4.22769 v 4.53461 h -0.9458 c -0.50694,0 -0.91687,0.41028 -0.91687,0.91687 0,0.50623 0.40993,0.91651 0.91687,0.91651 h 3.30941 c 0.50659,0 0.91652,-0.41028 0.91652,-0.91651 0,-0.50624 -0.40993,-0.91687 -0.91652,-0.91687 h -0.53022 v -5.14174 l 12.58252,-16.53998 1.52964,5.43983 c -4.3882,1.62701 -7.53039,5.84306 -7.53039,10.79041 0,6.35071 5.16678,11.51749 11.51714,11.51749 6.349998,0 11.516778,-5.16678 11.516778,-11.51749 0,-6.35 -5.16643,-11.51643 -11.516778,-11.51643 m -25.54499,-12.85668 c 0,-0.28998 0.23565,-0.52599 0.52563,-0.52599 h 3.47487 c 0.28998,0 0.52563,0.23601 0.52563,0.52599 0,0.28998 -0.23565,0.52634 -0.52563,0.52634 h -3.47487 c -0.28998,0 -0.52563,-0.23636 -0.52563,-0.52634 m 1.61395,8.36859 3.74368,15.08831 h -3.97263 c -0.26141,-3.29812 -1.91488,-6.20395 -4.3755,-8.13647 z m -2.06198,15.08831 h -7.93115 l 4.37656,-6.60823 c 1.97026,1.59596 3.30306,3.94582 3.55459,6.60823 m -9.63754,10.60027 c -5.33929,0 -9.68375,-4.34411 -9.68375,-9.68411 0,-5.33929 4.34446,-9.68304 9.68375,-9.68304 1.64677,0 3.19758,0.41557 4.55648,1.14335 l -5.32095,8.03416 c -0.18626,0.28152 -0.2032,0.64241 -0.043,0.9398 0.15946,0.29775 0.47025,0.48295 0.80751,0.48295 h 9.63718 c -0.4639,4.91103 -4.60692,8.76689 -9.63718,8.76689 m 17.04375,-11.76161 -3.7846,-15.25553 h 15.38993 z m 18.5868,11.76161 c -5.33964,0 -9.68375,-4.34411 -9.68375,-9.68411 0,-4.10809 2.57599,-7.61788 6.19443,-9.02229 l 2.60667,9.27065 c 0.11395,0.40464 0.48155,0.66922 0.88195,0.66922 0.0822,0 0.16651,-0.0113 0.24871,-0.0346 0.48789,-0.13723 0.77188,-0.64347 0.63464,-1.1303 l -2.60737,-9.27312 c 0.56056,-0.1016 1.13523,-0.16263 1.72473,-0.16263 5.339648,0 9.683748,4.34375 9.683748,9.68304 0,5.34 -4.3441,9.68411 -9.683748,9.68411"
       style="fill:#000000;fill-opacity:1;fill-rule:nonzero;stroke:none;stroke-width:0.35277775"
       id="path972"
       inkscape:connector-curvature="0" />
  </g>
</svg>
