<?xml version="1.0" encoding="UTF-8" standalone="no"?>
<!-- Created with Inkscape (http://www.inkscape.org/) -->

<svg
   xmlns:dc="http://purl.org/dc/elements/1.1/"
   xmlns:cc="http://creativecommons.org/ns#"
   xmlns:rdf="http://www.w3.org/1999/02/22-rdf-syntax-ns#"
   xmlns:svg="http://www.w3.org/2000/svg"
   xmlns="http://www.w3.org/2000/svg"
   xmlns:sodipodi="http://sodipodi.sourceforge.net/DTD/sodipodi-0.dtd"
   xmlns:inkscape="http://www.inkscape.org/namespaces/inkscape"
   width="213"
   height="213"
   viewBox="0 0 56.356249 56.356252"
   version="1.1"
   id="svg4320"
   inkscape:version="0.92.5 (2060ec1f9f, 2020-04-08)"
   sodipodi:docname="transizione-energetica.svg">
  <defs
     id="defs4314" />
  <sodipodi:namedview
     id="base"
     pagecolor="#ffffff"
     bordercolor="#666666"
     borderopacity="1.0"
     inkscape:pageopacity="0.0"
     inkscape:pageshadow="2"
     inkscape:zoom="0.35"
     inkscape:cx="-222.85714"
     inkscape:cy="560"
     inkscape:document-units="mm"
     inkscape:current-layer="layer1"
     showgrid="false"
     units="px"
     inkscape:window-width="1920"
     inkscape:window-height="1055"
     inkscape:window-x="0"
     inkscape:window-y="0"
     inkscape:window-maximized="1" />
  <metadata
     id="metadata4317">
    <rdf:RDF>
      <cc:Work
         rdf:about="">
        <dc:format>image/svg+xml</dc:format>
        <dc:type
           rdf:resource="http://purl.org/dc/dcmitype/StillImage" />
        <dc:title></dc:title>
      </cc:Work>
    </rdf:RDF>
  </metadata>
  <g
     inkscape:label="Livello 1"
     inkscape:groupmode="layer"
     id="layer1"
     transform="translate(0,-240.64373)">
    <g
       id="g974"
       transform="matrix(0.35277777,0,0,-0.35277777,51.22269,268.17804)">
      <path
         d="m 0,0 c -0.194,0.073 -4.797,1.788 -10.246,1.788 -5.783,0 -10.478,-1.967 -13.582,-5.69 -4.515,-5.406 -3.622,-11.849 -2.701,-15.189 -2.093,-2.186 -4.136,-4.644 -5.743,-6.992 -1.33,3.792 -3.36,7.166 -5.832,9.581 0.251,1.08 3.759,16.935 -7.55,22.844 -4.076,2.129 -9.034,3.207 -14.739,3.207 -15.157,0 -30.702,-7.487 -31.354,-7.806 -0.581,-0.284 -1.003,-0.809 -1.151,-1.437 -0.149,-0.627 -0.011,-1.287 0.381,-1.8 0.665,-0.875 16.467,-21.524 30.822,-26.812 1.652,-0.607 3.353,-0.917 5.059,-0.917 7.289,0 13.083,5.529 16.059,9.088 2.604,-2.847 5.081,-7.68 5.608,-13.519 0.426,-4.719 -0.293,-11.742 -6.06,-18.31 -9.194,-9.288 -17.189,-12.271 -32.903,-12.271 -29.666,0 -53.802,24.136 -53.802,53.802 0,28.99 23.051,52.682 51.785,53.752 1.098,-9.648 9.3,-17.167 19.233,-17.167 h 15.065 c 1.19,0 2.152,0.962 2.152,2.152 v 6.456 h 10.76 c 1.19,0 2.152,0.962 2.152,2.152 0,1.19 -0.962,2.152 -2.152,2.152 h -10.76 v 12.913 h 10.76 c 1.19,0 2.152,0.962 2.152,2.152 0,1.19 -0.962,2.152 -2.152,2.152 h -10.76 v 6.456 c 0,1.19 -0.962,2.152 -2.152,2.152 h -15.065 c -9.97,0 -18.197,-7.573 -19.248,-17.268 -31.101,-1.076 -56.074,-26.697 -56.074,-58.054 0,-32.04 26.066,-58.106 58.106,-58.106 16.864,0 25.939,3.42 36.049,13.644 6.863,7.808 7.705,16.072 7.203,21.633 -0.032,0.353 -0.101,0.699 -0.144,1.05 1.059,2.582 3.878,6.323 6.85,9.534 1.184,-0.401 3.951,-1.197 7.145,-1.197 4.511,0 8.231,1.605 10.767,4.644 6.088,7.302 7.383,16.543 7.435,16.93 C 1.504,-1.308 0.934,-0.353 0,0 m -56.636,-24.914 c -1.196,0 -2.397,0.221 -3.57,0.652 -10.614,3.908 -22.771,17.855 -27.179,23.238 4.89,2.055 16.238,6.273 26.994,6.273 5.003,0 9.29,-0.915 12.746,-2.72 6.452,-3.37 6.194,-11.992 5.691,-15.988 -4.797,3.282 -10.148,5.651 -15.962,7.035 -1.152,0.269 -2.314,-0.439 -2.591,-1.595 -0.276,-1.157 0.439,-2.317 1.594,-2.591 5.505,-1.308 10.52,-3.628 15.007,-6.794 -2.484,-2.965 -7.195,-7.51 -12.73,-7.51 z m -0.08,85.499 h 12.913 V 30.456 h -12.913 c -8.304,0 -15.064,6.76 -15.064,15.064 0,8.305 6.76,15.065 15.064,15.065 m 47.348,-77.059 c -1.715,-2.055 -4.227,-3.097 -7.463,-3.097 -1.335,0 -2.563,0.183 -3.594,0.4 1.302,1.156 2.496,2.054 3.409,2.51 1.063,0.531 1.493,1.825 0.962,2.888 -0.534,1.063 -1.825,1.489 -2.889,0.962 -1.106,-0.553 -2.461,-1.537 -3.91,-2.774 -0.325,2.597 -0.107,6.011 2.329,8.927 2.292,2.748 5.75,4.142 10.276,4.142 2.802,0 5.391,-0.546 7.009,-0.983 -0.637,-2.798 -2.309,-8.393 -6.129,-12.975 z"
         style="fill:#000000;fill-opacity:1;fill-rule:nonzero;stroke:none"
         id="path976"
         inkscape:connector-curvature="0" />
    </g>
  </g>
</svg>
