<?xml version="1.0" encoding="UTF-8" standalone="no"?>
<!-- Created with Inkscape (http://www.inkscape.org/) -->

<svg
   xmlns:dc="http://purl.org/dc/elements/1.1/"
   xmlns:cc="http://creativecommons.org/ns#"
   xmlns:rdf="http://www.w3.org/1999/02/22-rdf-syntax-ns#"
   xmlns:svg="http://www.w3.org/2000/svg"
   xmlns="http://www.w3.org/2000/svg"
   xmlns:sodipodi="http://sodipodi.sourceforge.net/DTD/sodipodi-0.dtd"
   xmlns:inkscape="http://www.inkscape.org/namespaces/inkscape"
   width="61.457371mm"
   height="14.55938mm"
   viewBox="0 0 61.457371 14.559379"
   version="1.1"
   id="svg4438"
   inkscape:version="0.92.5 (2060ec1f9f, 2020-04-08)"
   sodipodi:docname="achab.svg">
  <defs
     id="defs4432">
    <clipPath
       clipPathUnits="userSpaceOnUse"
       id="clipPath292">
      <path
         d="M 0,0 H 1920 V 4999.999 H 0 Z"
         id="path290"
         inkscape:connector-curvature="0" />
    </clipPath>
  </defs>
  <sodipodi:namedview
     id="base"
     pagecolor="#ffffff"
     bordercolor="#666666"
     borderopacity="1.0"
     inkscape:pageopacity="0.0"
     inkscape:pageshadow="2"
     inkscape:zoom="5.6"
     inkscape:cx="129.51388"
     inkscape:cy="21.230165"
     inkscape:document-units="mm"
     inkscape:current-layer="layer1"
     showgrid="false"
     fit-margin-top="2"
     fit-margin-left="2"
     fit-margin-right="2"
     fit-margin-bottom="2"
     inkscape:window-width="1920"
     inkscape:window-height="1025"
     inkscape:window-x="0"
     inkscape:window-y="1080"
     inkscape:window-maximized="1"
     inkscape:pagecheckerboard="true" />
  <metadata
     id="metadata4435">
    <rdf:RDF>
      <cc:Work
         rdf:about="">
        <dc:format>image/svg+xml</dc:format>
        <dc:type
           rdf:resource="http://purl.org/dc/dcmitype/StillImage" />
        <dc:title></dc:title>
      </cc:Work>
    </rdf:RDF>
  </metadata>
  <g
     inkscape:label="Livello 1"
     inkscape:groupmode="layer"
     id="layer1"
     transform="translate(-57.281749,-144.51191)">
    <g
       id="g1095">
      <path
         d="m 64.283785,154.48522 c -0.765881,-0.0466 -1.531761,-0.27834 -1.531761,-1.20721 v -1.83373 c -0.336903,0.17427 -0.731308,0.26705 -1.114425,0.35983 -0.557036,0.1277 -1.183569,0.25541 -1.183569,0.96344 0,0.71931 0.649816,0.95179 1.264708,0.95179 0.278694,0 0.557036,-0.0815 0.83573,-0.16263 l -0.684741,0.8703 c -0.197203,0.0349 -0.406047,0.0582 -0.603603,0.0582 -1.171928,0 -1.984375,-0.74295 -1.984375,-1.70603 0,-2.15865 3.470275,-1.16064 3.470275,-2.4257 0,-0.55704 -0.685095,-0.74295 -1.114425,-0.74295 -0.591608,0 -1.056217,0.22048 -1.578328,0.46461 l 0.777522,-1.16064 0.754239,-0.0699 c 1.25342,0 2.205214,0.35983 2.217209,1.76424 v 1.7406 c 0,0.91687 0.02293,1.26506 0.986013,1.36984 z"
         style="fill:#ffffff;fill-opacity:1;fill-rule:nonzero;stroke:none;stroke-width:0.35277778"
         id="path300"
         inkscape:connector-curvature="0" />
      <path
         d="m 69.494665,150.17942 h -0.03493 c -0.336197,-0.38312 -0.893586,-0.56868 -1.415697,-0.56868 -1.125714,0 -1.938161,0.78917 -1.938161,1.8916 0,1.33491 1.126066,2.21685 2.413705,2.21685 0.592314,0 1.242131,-0.23213 1.694745,-0.56868 h 0.03493 l -0.603603,1.10279 c -0.487186,0.18556 -1.021292,0.23177 -1.531761,0.23177 -1.787525,0 -3.179939,-1.17193 -3.179939,-2.68076 0,-1.99636 1.555044,-2.95945 3.307292,-2.95945 0.418041,0 0.847372,0.0462 1.253419,0.139 z"
         style="fill:#ffffff;fill-opacity:1;fill-rule:nonzero;stroke:none;stroke-width:0.35277778"
         id="path304"
         inkscape:connector-curvature="0" />
      <path
         d="m 71.096417,146.69782 c 0.267053,0 0.545394,0 0.708025,-0.18591 h 0.03493 v 3.06387 c 0.347839,-0.49883 1.137356,-0.73095 1.706033,-0.73095 1.601611,0 1.984375,0.96308 1.984375,2.08879 v 2.11244 c 0,0.53375 -0.0695,0.96308 0.440972,1.25342 v 0.0349 h -1.926519 v -0.0349 c 0.510822,-0.29034 0.429683,-0.71967 0.429683,-1.25342 v -1.76425 c 0,-0.9398 -0.301977,-1.6711 -1.299986,-1.6711 -1.021291,0 -1.334558,0.56867 -1.334558,1.60161 v 1.83374 c 0,0.53375 -0.06985,0.96308 0.440972,1.25342 v 0.0349 h -1.938161 v -0.0349 c 0.51047,-0.29034 0.440972,-0.71967 0.440972,-1.25342 v -5.06025 c 0,-0.53375 0.0695,-0.96308 -0.440972,-1.25342 v -0.0346 z"
         style="fill:#ffffff;fill-opacity:1;fill-rule:nonzero;stroke:none;stroke-width:0.35277778"
         id="path308"
         inkscape:connector-curvature="0" />
      <path
         d="m 81.460393,154.48522 c -0.765881,-0.0466 -1.531761,-0.27834 -1.531761,-1.20721 v -1.83373 c -0.336903,0.17427 -0.731308,0.26705 -1.114425,0.35983 -0.557036,0.1277 -1.183569,0.25541 -1.183569,0.96344 0,0.71931 0.649816,0.95179 1.265061,0.95179 0.278341,0 0.557036,-0.0815 0.835377,-0.16263 l -0.684389,0.8703 c -0.197555,0.0349 -0.406399,0.0582 -0.603955,0.0582 -1.172281,0 -1.984375,-0.74295 -1.984375,-1.70603 0,-2.15865 3.470275,-1.16064 3.470275,-2.4257 0,-0.55704 -0.685095,-0.74295 -1.114425,-0.74295 -0.591608,0 -1.055864,0.22048 -1.578328,0.46461 l 0.777522,-1.16064 0.754592,-0.0699 c 1.253067,0 2.205214,0.35983 2.216503,1.76424 v 1.7406 c 0,0.91687 0.02328,1.26506 0.986719,1.36984 z"
         style="fill:#ffffff;fill-opacity:1;fill-rule:nonzero;stroke:none;stroke-width:0.35277778"
         id="path312"
         inkscape:connector-curvature="0" />
      <path
         d="m 82.957406,146.69782 c 0.278694,0 0.568678,0 0.731308,-0.18591 h 0.03493 v 7.02168 c 0.313267,0.0808 0.638175,0.139 0.963084,0.139 1.276702,0 2.008011,-0.82409 2.008011,-1.97273 0,-1.12572 -0.568678,-1.99637 -1.740959,-1.99637 -0.371475,0 -0.661458,0.0928 -0.975077,0.25541 l 0.626886,-0.98637 c 0.267053,-0.0931 0.545394,-0.1277 0.823736,-0.1277 1.323269,0 2.437694,1.05586 2.437694,2.64583 0,1.82245 -1.323269,2.99438 -3.435702,2.99438 -0.788812,0 -1.543403,-0.12771 -2.112081,-0.20885 v -0.0346 c 0.383117,-0.16263 0.348192,-0.54575 0.348192,-0.92851 v -5.33894 c 0,-0.53375 0.0695,-0.95144 -0.429331,-1.24178 v -0.0346 z"
         style="fill:#ffffff;fill-opacity:1;fill-rule:nonzero;stroke:none;stroke-width:0.35277778"
         id="path316"
         inkscape:connector-curvature="0" />
      <path
         d="m 94.461171,148.82158 -0.251531,0.60572 c -0.08784,0.2099 -0.109713,0.27975 -0.349955,0.27975 -0.383117,0 -0.754945,-0.0931 -1.126772,-0.15169 0.458964,0.31503 0.776464,0.81562 0.776464,1.41005 0,1.31657 -1.334559,1.72438 -2.330098,1.81786 -0.153105,0.0117 -0.44838,0.11642 -0.44838,0.31468 0,0.25612 0.51435,0.22119 0.656167,0.22119 1.892652,0 2.899127,0.54787 2.899127,1.70145 0,1.31657 -1.367366,2.0507 -3.074105,2.0507 -1.607961,0 -3.030009,-0.66464 -3.030009,-1.65488 0,-0.65264 0.492478,-0.94368 1.05022,-0.94368 0.229305,0 0.415572,0.0466 0.623358,0.15134 -0.273755,0.0586 -0.415572,0.22154 -0.415572,0.52423 0,0.97895 1.093611,1.15358 1.805164,1.15358 0.72143,0 1.935691,-0.22084 1.935691,-1.20015 0,-1.02517 -1.564216,-1.08338 -2.230966,-1.08338 l -0.755297,0.0233 c -0.481189,0.0116 -0.798336,-0.40781 -0.798336,-0.82726 0,-0.33796 0.634294,-0.50095 0.864305,-0.61772 -0.787753,-0.16298 -1.444272,-0.92039 -1.444272,-1.79422 0,-1.35149 1.224844,-1.98085 2.351969,-1.98085 z m -3.194403,3.19229 c 0.65652,0 1.137709,-0.45438 1.137709,-1.12995 0,-0.74577 -0.59055,-1.29364 -1.367367,-1.29364 -0.601486,0 -1.115836,0.34961 -1.115836,1.02553 0,0.75741 0.634647,1.39806 1.345494,1.39806"
         style="fill:#ffffff;fill-opacity:1;fill-rule:nonzero;stroke:none;stroke-width:0.35277778"
         id="path320"
         inkscape:connector-curvature="0" />
      <path
         d="m 95.36908,148.97282 c 0.251531,0 0.513997,-0.0113 0.66675,-0.15134 h 0.03316 v 0.88547 c 0.240595,-0.52458 0.744008,-0.88547 1.290814,-0.88547 l 0.3937,0.0349 v 1.07209 c -0.119944,-0.1397 -0.317147,-0.18661 -0.503061,-0.18661 -0.831497,0 -1.181453,0.46637 -1.181453,1.66652 v 1.63124 c 0,0.53587 -0.06562,0.96697 0.415572,1.25836 v 0.0349 H 94.65788 v -0.0349 c 0.481189,-0.29139 0.415925,-0.72249 0.415925,-1.25836 v -2.78483 c 0,-0.53622 0.06526,-0.95532 -0.404989,-1.24707 v -0.0349 z"
         style="fill:#ffffff;fill-opacity:1;fill-rule:nonzero;stroke:none;stroke-width:0.35277778"
         id="path324"
         inkscape:connector-curvature="0" />
      <path
         d="m 98.102932,151.69947 c 0,-1.74766 1.323622,-2.87796 2.899128,-2.87796 0.69991,0 1.3014,0.19791 1.82668,0.68721 0.55774,0.52458 0.89712,1.29364 0.89712,2.08598 0,1.67781 -1.31304,2.8896 -2.85539,2.8896 -1.498596,0 -2.767538,-1.1303 -2.767538,-2.78483 m 4.518028,0.1397 c 0,-1.1303 -0.56903,-2.24861 -1.73955,-2.24861 -1.017059,0 -1.673578,0.85055 -1.673578,1.89936 0,1.07209 0.601839,2.22567 1.717318,2.22567 1.00648,0 1.69581,-0.82761 1.69581,-1.87642"
         style="fill:#ffffff;fill-opacity:1;fill-rule:nonzero;stroke:none;stroke-width:0.35277778"
         id="path328"
         inkscape:connector-curvature="0" />
      <path
         d="m 108.06852,148.97282 c 0.28434,0 0.62371,0.0466 0.82056,-0.15134 h 0.0328 v 4.24145 c 0,0.53622 -0.0656,0.96696 0.41592,1.23507 v 0.0349 h -1.41146 v -0.75742 c -0.3937,0.641 -0.80927,0.90876 -1.57515,0.90876 -1.29082,0 -1.90359,-0.7807 -1.90359,-2.42359 v -1.79422 c 0,-0.53623 0.0656,-0.96697 -0.41557,-1.25872 v -0.0349 h 0.71084 c 0.2406,0 0.51435,-0.0113 0.66781,-0.15134 h 0.0325 v 3.0413 c 0,1.07173 0.28434,1.73637 1.23613,1.73637 0.72178,0 1.24707,-0.62971 1.24707,-1.52647 v -1.79458 c 0,-0.54787 0.0656,-0.96732 -0.41557,-1.27036 v -0.0349 z"
         style="fill:#ffffff;fill-opacity:1;fill-rule:nonzero;stroke:none;stroke-width:0.35277778"
         id="path332"
         inkscape:connector-curvature="0" />
      <path
         d="m 110.38789,148.97282 c 0.24059,0 0.50306,-0.0233 0.65617,-0.15134 h 0.0328 v 0.82726 c 0.37183,-0.54751 1.18146,-0.82726 1.79388,-0.82726 1.52082,0 2.50507,1.24671 2.50507,2.77318 0,1.61996 -1.10454,2.88961 -2.6363,2.88961 -0.28434,0 -0.55775,-0.0462 -0.80963,-0.15134 l -0.5902,-0.95533 c 0.38277,0.19791 0.77612,0.33796 1.19239,0.33796 1.15923,0 1.7392,-0.82761 1.7392,-1.99284 0,-1.08338 -0.54681,-2.08562 -1.67393,-2.08562 -0.45932,0 -0.9077,0.19826 -1.21426,0.55951 -0.31715,0.36124 -0.30622,0.78034 -0.30622,1.24636 v 3.99697 c 0,0.53587 -0.0656,0.95568 0.41558,1.24672 v 0.0349 h -1.82669 v -0.0349 c 0.48119,-0.29104 0.41558,-0.71085 0.41558,-1.24672 v -5.18513 c 0,-0.53622 0.0656,-0.96731 -0.41558,-1.24707 v -0.0349 z"
         style="fill:#ffffff;fill-opacity:1;fill-rule:nonzero;stroke:none;stroke-width:0.35277778"
         id="path336"
         inkscape:connector-curvature="0" />
      <path
         d="m 115.52098,153.65569 c 0,-0.33937 0.27552,-0.60642 0.61136,-0.60642 0.33761,0 0.60678,0.2741 0.60678,0.60995 0,0.33972 -0.27411,0.60995 -0.61383,0.60995 -0.33761,0 -0.60431,-0.27764 -0.60431,-0.61348 m 1.12254,0 c 0,-0.29139 -0.2279,-0.51788 -0.51612,-0.51788 -0.28645,0 -0.51117,0.23178 -0.51117,0.51612 0,0.28822 0.21731,0.52669 0.50906,0.52669 0.29386,0 0.51823,-0.22966 0.51823,-0.52493 m -0.18556,0.35877 h -0.1203 l -0.19614,-0.32843 h -0.15734 v 0.32843 h -0.10266 v -0.72636 h 0.32702 c 0.1397,0 0.26141,0.0318 0.26141,0.19967 0,0.13582 -0.0917,0.19438 -0.22048,0.19826 z m -0.28681,-0.40639 c 0.0921,0 0.1965,-0.0123 0.1965,-0.12736 0,-0.10618 -0.1009,-0.115 -0.1838,-0.115 h -0.19967 v 0.24236 z"
         style="fill:#ffffff;fill-opacity:1;fill-rule:nonzero;stroke:none;stroke-width:0.35277778"
         id="path340"
         inkscape:connector-curvature="0" />
    </g>
  </g>
</svg>
